# xmcd
#
# Track frame offsets:
#	183
#	32428
#	51770
#	75555
#	98183
#	163340
#	199233
#	229808
#	247638
#	258183
#	276905
#	284123
#	302763
#
# Disc length: 4169 seconds
#
# Revision: 4
# Processed by: cddbd v1.5.2PL0 Copyright (c) Steve Scherf et al.
# Submitted via: audiograbber 1.83.01
#
DISCID=af10470d
DTITLE=John Browning, Saint Louis SO, Leonard Slatkin - Barber Symphony no.1, P
DTITLE=iano Concerto and Souvenirs Op.28
DYEAR=1991
DGENRE=Classical
TTITLE0=1. Allegro ma non troppo (Symphony no.1 op.9)
TTITLE1=2. Allegro molto (Symphony no.1 op.9)
TTITLE2=3. Andante tranquillo (Symphony no.1 op.9)
TTITLE3=4. Con moto. Passacaglia (Symphony no.1 op.9)
TTITLE4=1. Allegro appassionato (Piano Concerto op.38)
TTITLE5=2. Canzone. Moderato (Piano Concerto op.38)
TTITLE6=3. Allegro molto (Piano Concerto op.38)
TTITLE7=1. Waltz (Souvenirs op.28)
TTITLE8=2. Schottische (Souvenirs op.28)
TTITLE9=3. Pas de deux (Souvenirs op.28)
TTITLE10=4. Two-Step (Souvenirs op.28)
TTITLE11=5. Hesitation-Tango (Souvenirs op.28)
TTITLE12=6. Galop (Souvenirs op.28)
EXTD=Saint Louis Symphony Orchestra\nLeonard Slatkin, conductor YEAR: 1991
EXTT0=
EXTT1=
EXTT2=
EXTT3=
EXTT4=John Browning, piano
EXTT5=
EXTT6=
EXTT7=John Browning, piano\nLeonard Slatkin, piano
EXTT8=
EXTT9=
EXTT10=
EXTT11=
EXTT12=
PLAYORDER=
